<?xml version="1.0" encoding="UTF-8" standalone="no"?>
<!-- Created with Inkscape (http://www.inkscape.org/) -->

<svg
   width="210mm"
   height="297mm"
   viewBox="0 0 210 297"
   version="1.1"
   id="svg1"
   xmlns="http://www.w3.org/2000/svg"
   xmlns:svg="http://www.w3.org/2000/svg">
  <defs
     id="defs1" />
  <g
     id="layer1">
    <path
       d="m 32.259503,122.09196 v 2.71825 h 5.456949 v 0.38832 c 0,1.51242 -0.122623,1.55329 -4.966437,1.55329 l -2.432123,-0.0409 c -1.164966,-0.0409 -1.532851,-0.10221 -1.880298,-0.38832 -0.449635,-0.36789 -0.572263,-1.06278 -0.572263,-3.37227 0,-3.53579 0.02044,-3.55621 4.92556,-3.55621 3.106579,0 4.067166,0.0817 4.475926,0.36788 0.265694,0.18393 0.306569,0.34744 0.327007,1.14453 h 4.148917 c -0.02044,-2.00293 -0.183941,-2.84089 -0.756207,-3.51535 -0.899272,-1.08321 -2.77957,-1.41021 -7.848196,-1.41021 -8.829222,0 -9.421924,0.42919 -9.421924,6.80585 0,4.47593 0.224817,5.47738 1.430661,6.27447 1.144529,0.77665 2.595627,0.96058 7.275933,0.96058 3.69928,0 5.129941,-0.0817 6.519725,-0.36788 1.635041,-0.32701 2.513876,-1.26715 2.67738,-2.86132 0.06131,-0.65401 0.143067,-2.98395 0.143067,-4.33286 v -0.36788 z m 11.159171,7.72557 h 4.148916 v -3.45402 h 5.865709 c 1.716794,0 2.023364,0.0408 2.309496,0.36788 0.327008,0.34744 0.40876,0.83796 0.40876,2.3708 v 0.71534 h 4.087603 v -1.26716 c 0.08175,-3.14746 -0.286132,-3.7606 -2.391248,-4.00585 0.817521,-0.12257 1.205844,-0.2657 1.594166,-0.57227 0.735768,-0.55183 0.940148,-1.32846 0.940148,-3.35184 0,-2.3708 -0.30657,-3.27007 -1.348908,-3.90365 -0.878835,-0.53139 -0.878835,-0.53139 -5.579578,-0.53139 H 43.418674 Z m 4.148916,-6.86717 v -3.35184 h 5.845272 c 1.880297,0.0205 1.941612,0.0205 2.227744,0.14306 0.429197,0.18395 0.592701,0.57226 0.592701,1.49197 0,0.85841 -0.122623,1.26717 -0.449636,1.47155 -0.286131,0.20437 -0.286131,0.20437 -2.370809,0.24526 z m 14.204427,-6.76499 v 6.27447 c 0.02044,2.20731 0.02044,2.20731 0.04087,2.65694 0.102195,2.00293 0.327009,2.84088 1.001463,3.53577 1.021901,1.08322 2.656942,1.36935 7.868635,1.36935 3.167893,0 4.53724,-0.0817 5.76352,-0.327 1.55329,-0.32701 2.595628,-1.41023 2.820446,-2.96351 0.122623,-0.9606 0.143066,-1.18542 0.20438,-4.27155 v -6.27447 h -4.148917 v 6.27447 c 0,0.28613 -0.02044,0.94015 -0.04087,1.41022 -0.06131,1.28759 -0.163505,1.65549 -0.490512,2.00293 -0.449637,0.49052 -1.308034,0.61314 -4.169356,0.61314 -3.535775,0 -4.332858,-0.22482 -4.557676,-1.30804 -0.102194,-0.55183 -0.102194,-0.57226 -0.143066,-2.71825 v -6.27447 z m 19.55916,13.63216 h 9.810246 c 4.578118,-0.0205 4.802938,-0.0409 5.579578,-0.30658 1.20584,-0.40876 1.71679,-1.41021 1.71679,-3.35183 0,-2.18687 -0.55182,-2.98395 -2.35037,-3.29052 1.36935,-0.38832 1.83942,-1.18541 1.83942,-3.12702 0,-2.47299 -0.73577,-3.33139 -2.96351,-3.4949 -0.61314,-0.0409 -0.61314,-0.0409 -3.842347,-0.0613 h -9.789807 z m 3.944537,-8.25696 v -2.16643 h 5.84527 c 1.880298,0.0205 1.941612,0.0205 2.16643,0.0613 0.429198,0.10221 0.613141,0.40875 0.613141,0.98103 0,0.4905 -0.143066,0.83796 -0.449636,0.96058 -0.265694,0.12257 -0.858397,0.16351 -2.329935,0.16351 z m 0,4.98687 v -2.26862 h 5.865709 c 2.411685,0.0205 2.411685,0.0205 2.616066,0.0613 0.470072,0.10221 0.654022,0.38833 0.654022,1.02191 0,0.57226 -0.14307,0.87883 -0.490519,1.02189 -0.306569,0.14307 -0.306569,0.14307 -2.779569,0.16351 z m 14.613197,-10.36207 v 13.63216 h 4.353299 v -4.92557 h 9.38105 v 4.92557 h 4.35329 v -13.63216 h -4.35329 v 4.88468 h -9.38105 v -4.88468 z m 19.927069,0 v 6.27447 c 0.0205,2.20731 0.0205,2.20731 0.0409,2.65694 0.10221,2.00293 0.32702,2.84088 1.00147,3.53577 1.02191,1.08322 2.65694,1.36935 7.86863,1.36935 3.16789,0 4.53724,-0.0817 5.76351,-0.327 1.5533,-0.32701 2.59563,-1.41023 2.82045,-2.96351 0.1227,-0.9606 0.14307,-1.18542 0.20438,-4.27155 v -6.27447 h -4.14892 v 6.27447 c 0,0.28613 -0.0205,0.94015 -0.0409,1.41022 -0.0614,1.28759 -0.16351,1.65549 -0.49052,2.00293 -0.44964,0.49052 -1.30802,0.61314 -4.16936,0.61314 -3.53577,0 -4.33285,-0.22482 -4.55766,-1.30804 -0.10221,-0.55183 -0.10221,-0.57226 -0.14307,-2.71825 v -6.27447 z m 19.55916,13.63216 h 9.81025 c 4.57811,-0.0205 4.80293,-0.0409 5.57957,-0.30658 1.20585,-0.40876 1.71679,-1.41021 1.71679,-3.35183 0,-2.18687 -0.55181,-2.98395 -2.35037,-3.29052 1.36935,-0.38832 1.83943,-1.18541 1.83943,-3.12702 0,-2.47299 -0.73577,-3.33139 -2.96352,-3.4949 -0.61314,-0.0409 -0.61314,-0.0409 -3.84234,-0.0613 h -9.78981 z m 3.94453,-8.25696 v -2.16643 h 5.84528 c 1.88029,0.0205 1.9416,0.0205 2.16642,0.0613 0.42921,0.10221 0.61314,0.40875 0.61314,0.98103 0,0.4905 -0.14306,0.83796 -0.44963,0.96058 -0.26569,0.12257 -0.85839,0.16351 -2.32993,0.16351 z m 0,4.98687 v -2.26862 h 5.86572 c 2.41168,0.0205 2.41168,0.0205 2.61606,0.0613 0.47008,0.10221 0.65402,0.38833 0.65402,1.02191 0,0.57226 -0.14306,0.87883 -0.49051,1.02189 -0.30658,0.14307 -0.30658,0.14307 -2.77957,0.16351 z m 14.61321,3.27009 h 9.81024 c 4.57812,-0.0205 4.80294,-0.0409 5.57959,-0.30658 1.20584,-0.40876 1.71679,-1.41021 1.71679,-3.35183 0,-2.18687 -0.55183,-2.98395 -2.35038,-3.29052 1.36935,-0.38832 1.83943,-1.18541 1.83943,-3.12702 0,-2.47299 -0.73578,-3.33139 -2.96351,-3.4949 -0.61315,-0.0409 -0.61315,-0.0409 -3.84235,-0.0613 h -9.78981 z m 3.94454,-8.25696 v -2.16643 h 5.84527 c 1.8803,0.0205 1.94161,0.0205 2.16643,0.0613 0.42919,0.10221 0.61314,0.40875 0.61314,0.98103 0,0.4905 -0.14307,0.83796 -0.44964,0.96058 -0.2657,0.12257 -0.8584,0.16351 -2.32993,0.16351 z m 0,4.98687 v -2.26862 h 5.8657 c 2.41168,0.0205 2.41168,0.0205 2.61607,0.0613 0.47008,0.10221 0.65402,0.38833 0.65402,1.02191 0,0.57226 -0.14307,0.87883 -0.49051,1.02189 -0.30657,0.14307 -0.30657,0.14307 -2.77958,0.16351 z m 29.47163,3.27009 h 4.72117 l -7.13287,-13.63216 h -6.4584 l -7.21462,13.63216 h 4.74161 l 1.16497,-2.30951 h 9.01317 z m -2.61607,-5.29345 h -6.09052 l 2.6365,-5.17082 h 0.81752 z"
       id="text1"
       style="font-weight:bold;font-size:15.8573px;line-height:1.25;font-family:'Microgramma D Extended';-inkscape-font-specification:'Microgramma D Extended Bold';opacity:0.99999999;fill:#e6e6e6;fill-opacity:1;stroke-width:1.09489"
       aria-label="GRUBHUBBA" />
  </g>
</svg>
